<svg width="233" height="277" viewBox="0 0 233 277" fill="none" xmlns="http://www.w3.org/2000/svg">
    <rect width="233" height="277" rx="20" fill="white"/>
    <rect x="44.5" y="78.5" width="148" height="100" rx="28.5" fill="white" stroke="black"/>
    <rect x="44" y="78" width="149" height="101" rx="29" fill="#FCD02F"/>
    <path d="M63.2159 146V142.42L76.6591 127.705C78.2367 125.981 79.536 124.483 80.5568 123.21C81.5777 121.924 82.3333 120.718 82.8239 119.591C83.3277 118.451 83.5795 117.258 83.5795 116.011C83.5795 114.58 83.2348 113.34 82.5455 112.293C81.8693 111.245 80.9413 110.437 79.7614 109.866C78.5814 109.296 77.2557 109.011 75.7841 109.011C74.2197 109.011 72.8542 109.336 71.6875 109.986C70.5341 110.622 69.6392 111.517 69.0028 112.67C68.3797 113.824 68.0682 115.176 68.0682 116.727H63.375C63.375 114.341 63.9252 112.246 65.0256 110.443C66.1259 108.64 67.6241 107.235 69.5199 106.227C71.429 105.22 73.5701 104.716 75.9432 104.716C78.3295 104.716 80.4441 105.22 82.2869 106.227C84.1297 107.235 85.5748 108.594 86.6222 110.304C87.6695 112.014 88.1932 113.917 88.1932 116.011C88.1932 117.509 87.9214 118.974 87.3778 120.406C86.8475 121.825 85.9195 123.409 84.5938 125.159C83.2812 126.896 81.4583 129.017 79.125 131.523L69.9773 141.307V141.625H88.9091V146H63.2159ZM100.842 140.432L100.524 142.58C100.298 144.091 99.9534 145.708 99.4894 147.432C99.0387 149.155 98.568 150.779 98.0775 152.304C97.587 153.829 97.1826 155.042 96.8644 155.943H93.2849C93.4572 155.095 93.6826 153.974 93.961 152.582C94.2394 151.19 94.5178 149.633 94.7962 147.909C95.0879 146.199 95.3266 144.449 95.5122 142.659L95.7508 140.432H100.842ZM118.328 146.557C115.703 146.557 113.363 146.106 111.308 145.205C109.266 144.303 107.642 143.05 106.436 141.446C105.242 139.829 104.593 137.953 104.487 135.818H109.498C109.604 137.131 110.055 138.264 110.85 139.219C111.646 140.16 112.686 140.889 113.972 141.406C115.258 141.923 116.684 142.182 118.248 142.182C119.998 142.182 121.549 141.877 122.901 141.267C124.254 140.657 125.314 139.809 126.083 138.722C126.852 137.634 127.237 136.375 127.237 134.943C127.237 133.445 126.865 132.126 126.123 130.986C125.381 129.832 124.293 128.931 122.862 128.281C121.43 127.632 119.68 127.307 117.612 127.307H114.35V122.932H117.612C119.229 122.932 120.648 122.64 121.867 122.057C123.1 121.473 124.061 120.652 124.751 119.591C125.454 118.53 125.805 117.284 125.805 115.852C125.805 114.473 125.5 113.274 124.89 112.253C124.28 111.232 123.418 110.437 122.305 109.866C121.204 109.296 119.905 109.011 118.407 109.011C117.002 109.011 115.676 109.27 114.43 109.787C113.197 110.291 112.189 111.027 111.407 111.994C110.625 112.949 110.201 114.102 110.134 115.455H105.362C105.441 113.32 106.084 111.451 107.291 109.847C108.497 108.229 110.075 106.97 112.024 106.068C113.986 105.167 116.14 104.716 118.487 104.716C121.006 104.716 123.167 105.226 124.97 106.247C126.773 107.255 128.158 108.587 129.126 110.244C130.094 111.902 130.578 113.691 130.578 115.614C130.578 117.907 129.974 119.863 128.768 121.48C127.575 123.098 125.951 124.218 123.896 124.841V125.159C126.468 125.583 128.476 126.677 129.921 128.44C131.366 130.19 132.089 132.358 132.089 134.943C132.089 137.157 131.486 139.146 130.279 140.909C129.086 142.659 127.455 144.038 125.387 145.045C123.319 146.053 120.966 146.557 118.328 146.557ZM157.624 138.364V136.216C157.624 134.731 157.929 133.372 158.539 132.139C159.162 130.893 160.063 129.899 161.243 129.156C162.436 128.401 163.881 128.023 165.578 128.023C167.302 128.023 168.747 128.401 169.914 129.156C171.08 129.899 171.962 130.893 172.558 132.139C173.155 133.372 173.453 134.731 173.453 136.216V138.364C173.453 139.848 173.148 141.214 172.539 142.46C171.942 143.693 171.054 144.687 169.874 145.443C168.707 146.186 167.275 146.557 165.578 146.557C163.855 146.557 162.403 146.186 161.223 145.443C160.043 144.687 159.148 143.693 158.539 142.46C157.929 141.214 157.624 139.848 157.624 138.364ZM161.681 136.216V138.364C161.681 139.597 161.972 140.704 162.556 141.685C163.139 142.652 164.147 143.136 165.578 143.136C166.97 143.136 167.951 142.652 168.522 141.685C169.105 140.704 169.397 139.597 169.397 138.364V136.216C169.397 134.983 169.118 133.883 168.561 132.915C168.005 131.934 167.01 131.443 165.578 131.443C164.186 131.443 163.185 131.934 162.576 132.915C161.979 133.883 161.681 134.983 161.681 136.216ZM137.34 115.057V112.909C137.34 111.424 137.645 110.065 138.255 108.832C138.878 107.586 139.779 106.592 140.959 105.849C142.152 105.094 143.597 104.716 145.294 104.716C147.018 104.716 148.463 105.094 149.63 105.849C150.796 106.592 151.678 107.586 152.274 108.832C152.871 110.065 153.169 111.424 153.169 112.909V115.057C153.169 116.542 152.864 117.907 152.255 119.153C151.658 120.386 150.77 121.381 149.59 122.136C148.423 122.879 146.991 123.25 145.294 123.25C143.571 123.25 142.119 122.879 140.939 122.136C139.759 121.381 138.864 120.386 138.255 119.153C137.645 117.907 137.34 116.542 137.34 115.057ZM141.397 112.909V115.057C141.397 116.29 141.688 117.397 142.272 118.378C142.855 119.346 143.862 119.83 145.294 119.83C146.686 119.83 147.667 119.346 148.237 118.378C148.821 117.397 149.112 116.29 149.112 115.057V112.909C149.112 111.676 148.834 110.576 148.277 109.608C147.72 108.627 146.726 108.136 145.294 108.136C143.902 108.136 142.901 108.627 142.291 109.608C141.695 110.576 141.397 111.676 141.397 112.909ZM138.851 146L166.851 105.273H171.385L143.385 146H138.851Z" fill="black"/>
    <path d="M73.6715 213.864V203.364H74.805V204.577H74.9442C75.0304 204.444 75.1497 204.275 75.3022 204.07C75.458 203.861 75.68 203.675 75.9684 203.513C76.2601 203.347 76.6545 203.264 77.1516 203.264C77.7946 203.264 78.3614 203.425 78.8519 203.746C79.3424 204.068 79.7253 204.524 80.0004 205.114C80.2754 205.704 80.413 206.4 80.413 207.202C80.413 208.01 80.2754 208.711 80.0004 209.305C79.7253 209.895 79.3441 210.352 78.8569 210.677C78.3697 210.998 77.8079 211.159 77.1715 211.159C76.681 211.159 76.2882 211.078 75.9933 210.915C75.6983 210.75 75.4712 210.562 75.3121 210.354C75.1531 210.142 75.0304 209.966 74.9442 209.827H74.8448V213.864H73.6715ZM74.8249 207.182C74.8249 207.759 74.9094 208.267 75.0785 208.708C75.2475 209.146 75.4944 209.489 75.8192 209.737C76.1441 209.982 76.5418 210.105 77.0124 210.105C77.503 210.105 77.9123 209.976 78.2404 209.717C78.5719 209.455 78.8204 209.104 78.9862 208.663C79.1552 208.219 79.2397 207.725 79.2397 207.182C79.2397 206.645 79.1568 206.161 78.9911 205.73C78.8287 205.296 78.5818 204.953 78.2504 204.701C77.9222 204.446 77.5096 204.318 77.0124 204.318C76.5352 204.318 76.1341 204.439 75.8093 204.681C75.4845 204.92 75.2392 205.254 75.0735 205.685C74.9078 206.113 74.8249 206.612 74.8249 207.182ZM85.4045 211.159C84.6687 211.159 84.034 210.997 83.5004 210.672C82.9701 210.344 82.5607 209.886 82.2724 209.3C81.9873 208.71 81.8448 208.024 81.8448 207.241C81.8448 206.459 81.9873 205.77 82.2724 205.173C82.5607 204.573 82.9618 204.106 83.4755 203.771C83.9925 203.433 84.5958 203.264 85.2852 203.264C85.6829 203.264 86.0756 203.33 86.4634 203.463C86.8512 203.596 87.2042 203.811 87.5224 204.109C87.8406 204.404 88.0941 204.795 88.283 205.283C88.4719 205.77 88.5664 206.37 88.5664 207.082V207.58H82.68V206.565H87.3732C87.3732 206.134 87.2871 205.75 87.1147 205.412C86.9457 205.074 86.7037 204.807 86.3888 204.612C86.0773 204.416 85.7094 204.318 85.2852 204.318C84.8178 204.318 84.4135 204.434 84.0721 204.666C83.734 204.895 83.4738 205.193 83.2915 205.561C83.1093 205.929 83.0181 206.323 83.0181 206.744V207.42C83.0181 207.997 83.1175 208.486 83.3164 208.887C83.5186 209.285 83.7987 209.588 84.1566 209.797C84.5146 210.002 84.9305 210.105 85.4045 210.105C85.7127 210.105 85.9911 210.062 86.2397 209.976C86.4916 209.886 86.7087 209.754 86.891 209.578C87.0733 209.399 87.2141 209.177 87.3136 208.912L88.4471 209.23C88.3278 209.615 88.1272 209.953 87.8455 210.244C87.5638 210.533 87.2158 210.758 86.8015 210.92C86.3872 211.08 85.9215 211.159 85.4045 211.159ZM90.3512 211V203.364H91.4847V204.517H91.5643C91.7035 204.139 91.9554 203.833 92.32 203.597C92.6845 203.362 93.0955 203.244 93.5529 203.244C93.6391 203.244 93.7468 203.246 93.8761 203.249C94.0053 203.253 94.1031 203.258 94.1694 203.264V204.457C94.1296 204.447 94.0385 204.433 93.896 204.413C93.7567 204.389 93.6093 204.378 93.4535 204.378C93.0823 204.378 92.7508 204.456 92.4592 204.612C92.1708 204.764 91.9421 204.976 91.7731 205.248C91.6074 205.516 91.5245 205.823 91.5245 206.168V211H90.3512ZM98.43 211.159C97.7141 211.159 97.0977 210.99 96.5806 210.652C96.0636 210.314 95.6658 209.848 95.3874 209.255C95.109 208.662 94.9698 207.984 94.9698 207.222C94.9698 206.446 95.1123 205.762 95.3974 205.168C95.6857 204.572 96.0868 204.106 96.6005 203.771C97.1175 203.433 97.7208 203.264 98.4102 203.264C98.9471 203.264 99.431 203.364 99.8619 203.562C100.293 203.761 100.646 204.04 100.921 204.398C101.196 204.756 101.367 205.173 101.433 205.651H100.26C100.17 205.303 99.9712 204.994 99.663 204.726C99.3581 204.454 98.9471 204.318 98.43 204.318C97.9727 204.318 97.5716 204.437 97.2269 204.676C96.8855 204.911 96.6187 205.245 96.4265 205.675C96.2376 206.103 96.1431 206.605 96.1431 207.182C96.1431 207.772 96.2359 208.286 96.4215 208.723C96.6104 209.161 96.8756 209.5 97.217 209.742C97.5617 209.984 97.966 210.105 98.43 210.105C98.735 210.105 99.0117 210.052 99.2603 209.946C99.5089 209.84 99.7193 209.688 99.8917 209.489C100.064 209.29 100.187 209.051 100.26 208.773H101.433C101.367 209.223 101.203 209.629 100.941 209.991C100.682 210.349 100.339 210.634 99.9116 210.846C99.4873 211.055 98.9935 211.159 98.43 211.159ZM106.35 211.159C105.614 211.159 104.979 210.997 104.446 210.672C103.915 210.344 103.506 209.886 103.218 209.3C102.933 208.71 102.79 208.024 102.79 207.241C102.79 206.459 102.933 205.77 103.218 205.173C103.506 204.573 103.907 204.106 104.421 203.771C104.938 203.433 105.541 203.264 106.23 203.264C106.628 203.264 107.021 203.33 107.409 203.463C107.797 203.596 108.15 203.811 108.468 204.109C108.786 204.404 109.039 204.795 109.228 205.283C109.417 205.77 109.512 206.37 109.512 207.082V207.58H103.625V206.565H108.319C108.319 206.134 108.232 205.75 108.06 205.412C107.891 205.074 107.649 204.807 107.334 204.612C107.023 204.416 106.655 204.318 106.23 204.318C105.763 204.318 105.359 204.434 105.017 204.666C104.679 204.895 104.419 205.193 104.237 205.561C104.055 205.929 103.963 206.323 103.963 206.744V207.42C103.963 207.997 104.063 208.486 104.262 208.887C104.464 209.285 104.744 209.588 105.102 209.797C105.46 210.002 105.876 210.105 106.35 210.105C106.658 210.105 106.936 210.062 107.185 209.976C107.437 209.886 107.654 209.754 107.836 209.578C108.019 209.399 108.159 209.177 108.259 208.912L109.392 209.23C109.273 209.615 109.073 209.953 108.791 210.244C108.509 210.533 108.161 210.758 107.747 210.92C107.333 211.08 106.867 211.159 106.35 211.159ZM112.47 206.406V211H111.297V203.364H112.43V204.557H112.529C112.708 204.169 112.98 203.857 113.345 203.622C113.709 203.384 114.18 203.264 114.757 203.264C115.274 203.264 115.726 203.37 116.114 203.582C116.502 203.791 116.803 204.109 117.019 204.537C117.234 204.961 117.342 205.498 117.342 206.148V211H116.169V206.227C116.169 205.627 116.013 205.16 115.701 204.825C115.39 204.487 114.962 204.318 114.419 204.318C114.044 204.318 113.709 204.399 113.414 204.562C113.123 204.724 112.892 204.961 112.723 205.273C112.554 205.584 112.47 205.962 112.47 206.406ZM122.807 203.364V204.358H118.85V203.364H122.807ZM120.003 201.534H121.176V208.812C121.176 209.144 121.224 209.393 121.32 209.558C121.42 209.721 121.546 209.83 121.698 209.886C121.854 209.939 122.018 209.966 122.191 209.966C122.32 209.966 122.426 209.959 122.509 209.946C122.592 209.929 122.658 209.916 122.708 209.906L122.946 210.96C122.867 210.99 122.756 211.02 122.613 211.05C122.471 211.083 122.29 211.099 122.071 211.099C121.74 211.099 121.415 211.028 121.097 210.886C120.782 210.743 120.52 210.526 120.311 210.234C120.106 209.943 120.003 209.575 120.003 209.131V201.534ZM126.819 211.179C126.335 211.179 125.896 211.088 125.502 210.906C125.107 210.72 124.794 210.453 124.562 210.105C124.33 209.754 124.214 209.33 124.214 208.832C124.214 208.395 124.3 208.04 124.472 207.768C124.645 207.493 124.875 207.278 125.164 207.122C125.452 206.966 125.77 206.85 126.118 206.774C126.469 206.695 126.822 206.632 127.177 206.585C127.641 206.526 128.017 206.481 128.306 206.451C128.597 206.418 128.809 206.363 128.942 206.287C129.078 206.211 129.146 206.078 129.146 205.889V205.849C129.146 205.359 129.012 204.978 128.743 204.706C128.478 204.434 128.075 204.298 127.535 204.298C126.975 204.298 126.536 204.421 126.218 204.666C125.899 204.911 125.676 205.173 125.546 205.452L124.433 205.054C124.632 204.59 124.897 204.229 125.228 203.97C125.563 203.708 125.927 203.526 126.322 203.423C126.72 203.317 127.111 203.264 127.495 203.264C127.74 203.264 128.022 203.294 128.34 203.354C128.662 203.41 128.972 203.528 129.27 203.707C129.572 203.886 129.822 204.156 130.021 204.517C130.22 204.878 130.319 205.362 130.319 205.969V211H129.146V209.966H129.086C129.007 210.132 128.874 210.309 128.688 210.498C128.503 210.687 128.256 210.848 127.948 210.98C127.639 211.113 127.263 211.179 126.819 211.179ZM126.998 210.125C127.462 210.125 127.853 210.034 128.171 209.852C128.493 209.669 128.735 209.434 128.897 209.146C129.063 208.857 129.146 208.554 129.146 208.236V207.162C129.096 207.222 128.987 207.276 128.818 207.326C128.652 207.372 128.46 207.414 128.241 207.45C128.026 207.483 127.815 207.513 127.61 207.54C127.407 207.563 127.243 207.583 127.117 207.599C126.812 207.639 126.527 207.704 126.262 207.793C126 207.879 125.788 208.01 125.626 208.186C125.467 208.358 125.387 208.594 125.387 208.892C125.387 209.3 125.538 209.608 125.84 209.817C126.145 210.022 126.531 210.125 126.998 210.125ZM135.543 214.023C134.976 214.023 134.489 213.95 134.081 213.804C133.674 213.661 133.334 213.473 133.062 213.237C132.794 213.005 132.58 212.757 132.421 212.491L133.355 211.835C133.462 211.974 133.596 212.134 133.758 212.312C133.921 212.495 134.143 212.652 134.424 212.785C134.709 212.921 135.082 212.989 135.543 212.989C136.159 212.989 136.668 212.839 137.069 212.541C137.47 212.243 137.671 211.776 137.671 211.139V209.588H137.571C137.485 209.727 137.363 209.9 137.203 210.105C137.048 210.307 136.822 210.488 136.527 210.647C136.236 210.803 135.841 210.881 135.344 210.881C134.728 210.881 134.174 210.735 133.684 210.443C133.196 210.152 132.81 209.727 132.525 209.17C132.243 208.614 132.103 207.937 132.103 207.142C132.103 206.36 132.24 205.679 132.515 205.099C132.79 204.515 133.173 204.065 133.664 203.746C134.154 203.425 134.721 203.264 135.364 203.264C135.861 203.264 136.256 203.347 136.547 203.513C136.842 203.675 137.068 203.861 137.223 204.07C137.382 204.275 137.505 204.444 137.591 204.577H137.711V203.364H138.844V211.219C138.844 211.875 138.695 212.409 138.397 212.82C138.102 213.234 137.704 213.537 137.203 213.729C136.706 213.925 136.153 214.023 135.543 214.023ZM135.503 209.827C135.974 209.827 136.372 209.719 136.696 209.504C137.021 209.288 137.268 208.978 137.437 208.574C137.606 208.17 137.691 207.686 137.691 207.122C137.691 206.572 137.608 206.086 137.442 205.665C137.276 205.245 137.031 204.915 136.706 204.676C136.382 204.437 135.98 204.318 135.503 204.318C135.006 204.318 134.592 204.444 134.26 204.696C133.932 204.948 133.685 205.286 133.52 205.71C133.357 206.134 133.276 206.605 133.276 207.122C133.276 207.652 133.359 208.121 133.525 208.529C133.694 208.933 133.942 209.252 134.27 209.484C134.602 209.712 135.013 209.827 135.503 209.827ZM144.194 211.159C143.458 211.159 142.823 210.997 142.289 210.672C141.759 210.344 141.35 209.886 141.061 209.3C140.776 208.71 140.634 208.024 140.634 207.241C140.634 206.459 140.776 205.77 141.061 205.173C141.35 204.573 141.751 204.106 142.265 203.771C142.782 203.433 143.385 203.264 144.074 203.264C144.472 203.264 144.865 203.33 145.252 203.463C145.64 203.596 145.993 203.811 146.311 204.109C146.63 204.404 146.883 204.795 147.072 205.283C147.261 205.77 147.355 206.37 147.355 207.082V207.58H141.469V206.565H146.162C146.162 206.134 146.076 205.75 145.904 205.412C145.735 205.074 145.493 204.807 145.178 204.612C144.866 204.416 144.498 204.318 144.074 204.318C143.607 204.318 143.203 204.434 142.861 204.666C142.523 204.895 142.263 205.193 142.081 205.561C141.898 205.929 141.807 206.323 141.807 206.744V207.42C141.807 207.997 141.907 208.486 142.105 208.887C142.308 209.285 142.588 209.588 142.946 209.797C143.304 210.002 143.72 210.105 144.194 210.105C144.502 210.105 144.78 210.062 145.029 209.976C145.281 209.886 145.498 209.754 145.68 209.578C145.862 209.399 146.003 209.177 146.103 208.912L147.236 209.23C147.117 209.615 146.916 209.953 146.635 210.244C146.353 210.533 146.005 210.758 145.591 210.92C145.176 211.08 144.711 211.159 144.194 211.159ZM156.18 211.159C155.491 211.159 154.886 210.995 154.365 210.667C153.848 210.339 153.444 209.88 153.152 209.29C152.864 208.7 152.72 208.01 152.72 207.222C152.72 206.426 152.864 205.732 153.152 205.138C153.444 204.545 153.848 204.085 154.365 203.756C154.886 203.428 155.491 203.264 156.18 203.264C156.869 203.264 157.473 203.428 157.99 203.756C158.51 204.085 158.914 204.545 159.203 205.138C159.494 205.732 159.64 206.426 159.64 207.222C159.64 208.01 159.494 208.7 159.203 209.29C158.914 209.88 158.51 210.339 157.99 210.667C157.473 210.995 156.869 211.159 156.18 211.159ZM156.18 210.105C156.704 210.105 157.135 209.971 157.473 209.702C157.811 209.434 158.061 209.081 158.223 208.643C158.386 208.206 158.467 207.732 158.467 207.222C158.467 206.711 158.386 206.236 158.223 205.795C158.061 205.354 157.811 204.998 157.473 204.726C157.135 204.454 156.704 204.318 156.18 204.318C155.656 204.318 155.225 204.454 154.887 204.726C154.549 204.998 154.299 205.354 154.137 205.795C153.974 206.236 153.893 206.711 153.893 207.222C153.893 207.732 153.974 208.206 154.137 208.643C154.299 209.081 154.549 209.434 154.887 209.702C155.225 209.971 155.656 210.105 156.18 210.105ZM164.832 203.364V204.358H160.715V203.364H164.832ZM161.948 211V202.31C161.948 201.872 162.051 201.508 162.257 201.216C162.462 200.924 162.729 200.705 163.057 200.56C163.385 200.414 163.731 200.341 164.096 200.341C164.384 200.341 164.62 200.364 164.802 200.411C164.984 200.457 165.12 200.5 165.21 200.54L164.872 201.554C164.812 201.534 164.729 201.509 164.623 201.479C164.52 201.45 164.384 201.435 164.215 201.435C163.828 201.435 163.548 201.532 163.375 201.728C163.206 201.924 163.122 202.21 163.122 202.588V211H161.948ZM70.1448 228L67.8181 220.364H69.051L70.7016 226.21H70.7812L72.4118 220.364H73.6647L75.2755 226.19H75.355L77.0056 220.364H78.2385L75.9118 228H74.7584L73.088 222.134H72.9687L71.2982 228H70.1448ZM82.7316 228.159C81.9958 228.159 81.3611 227.997 80.8275 227.672C80.2972 227.344 79.8879 226.886 79.5995 226.3C79.3145 225.71 79.172 225.024 79.172 224.241C79.172 223.459 79.3145 222.77 79.5995 222.173C79.8879 221.573 80.2889 221.106 80.8026 220.771C81.3197 220.433 81.9229 220.264 82.6123 220.264C83.01 220.264 83.4028 220.33 83.7906 220.463C84.1784 220.596 84.5313 220.811 84.8495 221.109C85.1677 221.404 85.4213 221.795 85.6102 222.283C85.7991 222.77 85.8936 223.37 85.8936 224.082V224.58H80.0072V223.565H84.7004C84.7004 223.134 84.6142 222.75 84.4419 222.412C84.2728 222.074 84.0309 221.807 83.716 221.612C83.4044 221.416 83.0365 221.318 82.6123 221.318C82.145 221.318 81.7406 221.434 81.3992 221.666C81.0612 221.895 80.801 222.193 80.6187 222.561C80.4364 222.929 80.3453 223.323 80.3453 223.744V224.42C80.3453 224.997 80.4447 225.486 80.6436 225.887C80.8457 226.285 81.1258 226.588 81.4838 226.797C81.8417 227.002 82.2577 227.105 82.7316 227.105C83.0399 227.105 83.3183 227.062 83.5669 226.976C83.8187 226.886 84.0358 226.754 84.2181 226.578C84.4004 226.399 84.5413 226.177 84.6407 225.912L85.7742 226.23C85.6549 226.615 85.4544 226.953 85.1727 227.244C84.891 227.533 84.5429 227.758 84.1286 227.92C83.7143 228.08 83.2487 228.159 82.7316 228.159ZM87.8374 228V217.818H89.0107V221.577H89.1102C89.1963 221.444 89.3157 221.275 89.4681 221.07C89.6239 220.861 89.846 220.675 90.1343 220.513C90.426 220.347 90.8204 220.264 91.3176 220.264C91.9606 220.264 92.5273 220.425 93.0178 220.746C93.5084 221.068 93.8912 221.524 94.1663 222.114C94.4414 222.704 94.5789 223.4 94.5789 224.202C94.5789 225.01 94.4414 225.711 94.1663 226.305C93.8912 226.895 93.51 227.352 93.0228 227.677C92.5356 227.998 91.9738 228.159 91.3374 228.159C90.8469 228.159 90.4542 228.078 90.1592 227.915C89.8642 227.75 89.6372 227.562 89.4781 227.354C89.319 227.142 89.1963 226.966 89.1102 226.827H88.971V228H87.8374ZM88.9909 224.182C88.9909 224.759 89.0754 225.267 89.2444 225.708C89.4134 226.146 89.6604 226.489 89.9852 226.737C90.31 226.982 90.7077 227.105 91.1784 227.105C91.6689 227.105 92.0782 226.976 92.4063 226.717C92.7378 226.455 92.9864 226.104 93.1521 225.663C93.3211 225.219 93.4056 224.725 93.4056 224.182C93.4056 223.645 93.3228 223.161 93.157 222.73C92.9946 222.296 92.7477 221.953 92.4163 221.701C92.0882 221.446 91.6755 221.318 91.1784 221.318C90.7011 221.318 90.3 221.439 89.9752 221.681C89.6504 221.92 89.4052 222.254 89.2394 222.685C89.0737 223.113 88.9909 223.612 88.9909 224.182ZM101.783 222.074L100.729 222.372C100.662 222.196 100.565 222.026 100.435 221.86C100.31 221.691 100.137 221.552 99.9184 221.442C99.6997 221.333 99.4196 221.278 99.0782 221.278C98.6109 221.278 98.2214 221.386 97.9099 221.602C97.6017 221.814 97.4475 222.084 97.4475 222.412C97.4475 222.704 97.5536 222.934 97.7657 223.103C97.9778 223.272 98.3093 223.413 98.76 223.526L99.8936 223.804C100.576 223.97 101.085 224.223 101.42 224.565C101.755 224.903 101.922 225.339 101.922 225.872C101.922 226.31 101.796 226.701 101.544 227.045C101.296 227.39 100.948 227.662 100.5 227.861C100.053 228.06 99.5323 228.159 98.939 228.159C98.1601 228.159 97.5155 227.99 97.0051 227.652C96.4946 227.314 96.1715 226.82 96.0356 226.17L97.1492 225.892C97.2553 226.303 97.4558 226.611 97.7508 226.817C98.0491 227.022 98.4385 227.125 98.9191 227.125C99.466 227.125 99.9002 227.009 100.222 226.777C100.546 226.542 100.709 226.26 100.709 225.932C100.709 225.667 100.616 225.445 100.43 225.266C100.245 225.083 99.9598 224.947 99.5754 224.858L98.3026 224.56C97.6033 224.394 97.0896 224.137 96.7615 223.789C96.4366 223.438 96.2742 222.999 96.2742 222.472C96.2742 222.041 96.3952 221.66 96.6372 221.328C96.8824 220.997 97.2155 220.737 97.6365 220.548C98.0607 220.359 98.5413 220.264 99.0782 220.264C99.8339 220.264 100.427 220.43 100.858 220.761C101.292 221.093 101.6 221.53 101.783 222.074ZM103.688 228V220.364H104.861V228H103.688ZM104.285 219.091C104.056 219.091 103.859 219.013 103.693 218.857C103.531 218.701 103.449 218.514 103.449 218.295C103.449 218.077 103.531 217.889 103.693 217.734C103.859 217.578 104.056 217.5 104.285 217.5C104.513 217.5 104.709 217.578 104.871 217.734C105.037 217.889 105.12 218.077 105.12 218.295C105.12 218.514 105.037 218.701 104.871 218.857C104.709 219.013 104.513 219.091 104.285 219.091ZM110.331 220.364V221.358H106.374V220.364H110.331ZM107.527 218.534H108.701V225.812C108.701 226.144 108.749 226.393 108.845 226.558C108.944 226.721 109.07 226.83 109.223 226.886C109.379 226.939 109.543 226.966 109.715 226.966C109.844 226.966 109.95 226.959 110.033 226.946C110.116 226.929 110.182 226.916 110.232 226.906L110.471 227.96C110.391 227.99 110.28 228.02 110.138 228.05C109.995 228.083 109.814 228.099 109.596 228.099C109.264 228.099 108.939 228.028 108.621 227.886C108.306 227.743 108.044 227.526 107.836 227.234C107.63 226.943 107.527 226.575 107.527 226.131V218.534ZM115.216 228.159C114.48 228.159 113.845 227.997 113.312 227.672C112.782 227.344 112.372 226.886 112.084 226.3C111.799 225.71 111.656 225.024 111.656 224.241C111.656 223.459 111.799 222.77 112.084 222.173C112.372 221.573 112.773 221.106 113.287 220.771C113.804 220.433 114.407 220.264 115.097 220.264C115.494 220.264 115.887 220.33 116.275 220.463C116.663 220.596 117.016 220.811 117.334 221.109C117.652 221.404 117.906 221.795 118.095 222.283C118.283 222.77 118.378 223.37 118.378 224.082V224.58H112.492V223.565H117.185C117.185 223.134 117.099 222.75 116.926 222.412C116.757 222.074 116.515 221.807 116.2 221.612C115.889 221.416 115.521 221.318 115.097 221.318C114.629 221.318 114.225 221.434 113.884 221.666C113.546 221.895 113.285 222.193 113.103 222.561C112.921 222.929 112.83 223.323 112.83 223.744V224.42C112.83 224.997 112.929 225.486 113.128 225.887C113.33 226.285 113.61 226.588 113.968 226.797C114.326 227.002 114.742 227.105 115.216 227.105C115.524 227.105 115.803 227.062 116.051 226.976C116.303 226.886 116.52 226.754 116.703 226.578C116.885 226.399 117.026 226.177 117.125 225.912L118.259 226.23C118.139 226.615 117.939 226.953 117.657 227.244C117.375 227.533 117.027 227.758 116.613 227.92C116.199 228.08 115.733 228.159 115.216 228.159ZM130.345 220.364L127.521 228H126.328L123.504 220.364H124.776L126.884 226.449H126.964L129.072 220.364H130.345ZM131.893 228V220.364H133.066V228H131.893ZM132.49 219.091C132.261 219.091 132.064 219.013 131.898 218.857C131.736 218.701 131.655 218.514 131.655 218.295C131.655 218.077 131.736 217.889 131.898 217.734C132.064 217.578 132.261 217.5 132.49 217.5C132.718 217.5 132.914 217.578 133.076 217.734C133.242 217.889 133.325 218.077 133.325 218.295C133.325 218.514 133.242 218.701 133.076 218.857C132.914 219.013 132.718 219.091 132.49 219.091ZM140.625 222.074L139.571 222.372C139.504 222.196 139.407 222.026 139.277 221.86C139.151 221.691 138.979 221.552 138.76 221.442C138.541 221.333 138.261 221.278 137.92 221.278C137.453 221.278 137.063 221.386 136.752 221.602C136.443 221.814 136.289 222.084 136.289 222.412C136.289 222.704 136.395 222.934 136.608 223.103C136.82 223.272 137.151 223.413 137.602 223.526L138.735 223.804C139.418 223.97 139.927 224.223 140.262 224.565C140.596 224.903 140.764 225.339 140.764 225.872C140.764 226.31 140.638 226.701 140.386 227.045C140.137 227.39 139.789 227.662 139.342 227.861C138.894 228.06 138.374 228.159 137.781 228.159C137.002 228.159 136.357 227.99 135.847 227.652C135.336 227.314 135.013 226.82 134.877 226.17L135.991 225.892C136.097 226.303 136.298 226.611 136.593 226.817C136.891 227.022 137.28 227.125 137.761 227.125C138.308 227.125 138.742 227.009 139.063 226.777C139.388 226.542 139.551 226.26 139.551 225.932C139.551 225.667 139.458 225.445 139.272 225.266C139.087 225.083 138.802 224.947 138.417 224.858L137.144 224.56C136.445 224.394 135.931 224.137 135.603 223.789C135.278 223.438 135.116 222.999 135.116 222.472C135.116 222.041 135.237 221.66 135.479 221.328C135.724 220.997 136.057 220.737 136.478 220.548C136.902 220.359 137.383 220.264 137.92 220.264C138.676 220.264 139.269 220.43 139.7 220.761C140.134 221.093 140.442 221.53 140.625 222.074ZM142.53 228V220.364H143.703V228H142.53ZM143.127 219.091C142.898 219.091 142.701 219.013 142.535 218.857C142.372 218.701 142.291 218.514 142.291 218.295C142.291 218.077 142.372 217.889 142.535 217.734C142.701 217.578 142.898 217.5 143.127 217.5C143.355 217.5 143.551 217.578 143.713 217.734C143.879 217.889 143.962 218.077 143.962 218.295C143.962 218.514 143.879 218.701 143.713 218.857C143.551 219.013 143.355 219.091 143.127 219.091ZM149.173 220.364V221.358H145.216V220.364H149.173ZM146.369 218.534H147.543V225.812C147.543 226.144 147.591 226.393 147.687 226.558C147.786 226.721 147.912 226.83 148.065 226.886C148.22 226.939 148.384 226.966 148.557 226.966C148.686 226.966 148.792 226.959 148.875 226.946C148.958 226.929 149.024 226.916 149.074 226.906L149.312 227.96C149.233 227.99 149.122 228.02 148.979 228.05C148.837 228.083 148.656 228.099 148.437 228.099C148.106 228.099 147.781 228.028 147.463 227.886C147.148 227.743 146.886 227.526 146.677 227.234C146.472 226.943 146.369 226.575 146.369 226.131V218.534ZM153.958 228.159C153.269 228.159 152.664 227.995 152.144 227.667C151.627 227.339 151.222 226.88 150.931 226.29C150.642 225.7 150.498 225.01 150.498 224.222C150.498 223.426 150.642 222.732 150.931 222.138C151.222 221.545 151.627 221.085 152.144 220.756C152.664 220.428 153.269 220.264 153.958 220.264C154.648 220.264 155.251 220.428 155.768 220.756C156.288 221.085 156.693 221.545 156.981 222.138C157.273 222.732 157.419 223.426 157.419 224.222C157.419 225.01 157.273 225.7 156.981 226.29C156.693 226.88 156.288 227.339 155.768 227.667C155.251 227.995 154.648 228.159 153.958 228.159ZM153.958 227.105C154.482 227.105 154.913 226.971 155.251 226.702C155.589 226.434 155.839 226.081 156.002 225.643C156.164 225.206 156.245 224.732 156.245 224.222C156.245 223.711 156.164 223.236 156.002 222.795C155.839 222.354 155.589 221.998 155.251 221.726C154.913 221.454 154.482 221.318 153.958 221.318C153.435 221.318 153.004 221.454 152.666 221.726C152.328 221.998 152.077 222.354 151.915 222.795C151.753 223.236 151.671 223.711 151.671 224.222C151.671 224.732 151.753 225.206 151.915 225.643C152.077 226.081 152.328 226.434 152.666 226.702C153.004 226.971 153.435 227.105 153.958 227.105ZM159.21 228V220.364H160.343V221.517H160.423C160.562 221.139 160.814 220.833 161.178 220.597C161.543 220.362 161.954 220.244 162.411 220.244C162.497 220.244 162.605 220.246 162.734 220.249C162.864 220.253 162.962 220.258 163.028 220.264V221.457C162.988 221.447 162.897 221.433 162.754 221.413C162.615 221.389 162.468 221.378 162.312 221.378C161.941 221.378 161.609 221.456 161.318 221.612C161.029 221.764 160.801 221.976 160.631 222.248C160.466 222.516 160.383 222.823 160.383 223.168V228H159.21ZM169.828 222.074L168.774 222.372C168.707 222.196 168.61 222.026 168.48 221.86C168.354 221.691 168.182 221.552 167.963 221.442C167.745 221.333 167.465 221.278 167.123 221.278C166.656 221.278 166.266 221.386 165.955 221.602C165.647 221.814 165.492 222.084 165.492 222.412C165.492 222.704 165.599 222.934 165.811 223.103C166.023 223.272 166.354 223.413 166.805 223.526L167.938 223.804C168.621 223.97 169.13 224.223 169.465 224.565C169.8 224.903 169.967 225.339 169.967 225.872C169.967 226.31 169.841 226.701 169.589 227.045C169.34 227.39 168.992 227.662 168.545 227.861C168.098 228.06 167.577 228.159 166.984 228.159C166.205 228.159 165.56 227.99 165.05 227.652C164.54 227.314 164.216 226.82 164.081 226.17L165.194 225.892C165.3 226.303 165.501 226.611 165.796 226.817C166.094 227.022 166.483 227.125 166.964 227.125C167.511 227.125 167.945 227.009 168.267 226.777C168.591 226.542 168.754 226.26 168.754 225.932C168.754 225.667 168.661 225.445 168.475 225.266C168.29 225.083 168.005 224.947 167.62 224.858L166.348 224.56C165.648 224.394 165.134 224.137 164.806 223.789C164.482 223.438 164.319 222.999 164.319 222.472C164.319 222.041 164.44 221.66 164.682 221.328C164.927 220.997 165.26 220.737 165.681 220.548C166.106 220.359 166.586 220.264 167.123 220.264C167.879 220.264 168.472 220.43 168.903 220.761C169.337 221.093 169.645 221.53 169.828 222.074Z" fill="#A8A8A8"/>
    <circle cx="46.5" cy="77.5" r="21.5" fill="white"/>
    <circle cx="46.5" cy="77.5" r="18.5" stroke="#DDDDDD" stroke-opacity="0.866667" stroke-width="6"/>
    <path d="M43 77.5L42.5 82.5M42.5 82.5L44.5 83.5L49 83L50.5 78.5H48L51.5 75.5L47 77.5L45 75.5L44 77.5H42.5V82.5Z" stroke="#E3B924"/>
    <path d="M43 77.5L42.5 82.5M42.5 82.5L44.5 83.5L49 83L50.5 78.5H48L51.5 75.5L47 77.5L45 75.5L44 77.5H42.5V82.5Z" stroke="black"/>
    <path d="M81.4261 43H80.1932C80.1203 42.6454 79.9927 42.3338 79.8104 42.0653C79.6314 41.7969 79.4126 41.5715 79.1541 41.3892C78.8989 41.2036 78.6155 41.0644 78.304 40.9716C77.9924 40.8788 77.6676 40.8324 77.3295 40.8324C76.7131 40.8324 76.1546 40.9882 75.6541 41.2997C75.157 41.6113 74.7609 42.0703 74.4659 42.6768C74.1742 43.2834 74.0284 44.0275 74.0284 44.9091C74.0284 45.7907 74.1742 46.5348 74.4659 47.1413C74.7609 47.7479 75.157 48.2069 75.6541 48.5185C76.1546 48.83 76.7131 48.9858 77.3295 48.9858C77.6676 48.9858 77.9924 48.9394 78.304 48.8466C78.6155 48.7538 78.8989 48.6162 79.1541 48.4339C79.4126 48.2483 79.6314 48.0213 79.8104 47.7528C79.9927 47.4811 80.1203 47.1695 80.1932 46.8182H81.4261C81.3333 47.3385 81.1643 47.8042 80.919 48.2152C80.6738 48.6262 80.3688 48.9759 80.0043 49.2642C79.6397 49.5492 79.2304 49.7663 78.7763 49.9155C78.3255 50.0646 77.8433 50.1392 77.3295 50.1392C76.4612 50.1392 75.6889 49.9271 75.0128 49.5028C74.3366 49.0786 73.8047 48.4754 73.4169 47.6932C73.0291 46.911 72.8352 45.983 72.8352 44.9091C72.8352 43.8352 73.0291 42.9072 73.4169 42.125C73.8047 41.3428 74.3366 40.7396 75.0128 40.3153C75.6889 39.8911 76.4612 39.679 77.3295 39.679C77.8433 39.679 78.3255 39.7536 78.7763 39.9027C79.2304 40.0518 79.6397 40.2706 80.0043 40.5589C80.3688 40.844 80.6738 41.192 80.919 41.603C81.1643 42.0107 81.3333 42.4763 81.4261 43ZM85.5217 50.1591C84.8323 50.1591 84.2274 49.995 83.7071 49.6669C83.19 49.3388 82.7857 48.8797 82.494 48.2898C82.2056 47.6998 82.0615 47.0104 82.0615 46.2216C82.0615 45.4261 82.2056 44.7318 82.494 44.1385C82.7857 43.5452 83.19 43.0845 83.7071 42.7564C84.2274 42.4283 84.8323 42.2642 85.5217 42.2642C86.2111 42.2642 86.8143 42.4283 87.3313 42.7564C87.8517 43.0845 88.2561 43.5452 88.5444 44.1385C88.8361 44.7318 88.9819 45.4261 88.9819 46.2216C88.9819 47.0104 88.8361 47.6998 88.5444 48.2898C88.2561 48.8797 87.8517 49.3388 87.3313 49.6669C86.8143 49.995 86.2111 50.1591 85.5217 50.1591ZM85.5217 49.1051C86.0454 49.1051 86.4762 48.9709 86.8143 48.7024C87.1524 48.4339 87.4026 48.081 87.565 47.6435C87.7274 47.206 87.8086 46.732 87.8086 46.2216C87.8086 45.7112 87.7274 45.2356 87.565 44.7947C87.4026 44.3539 87.1524 43.9976 86.8143 43.7259C86.4762 43.4541 86.0454 43.3182 85.5217 43.3182C84.998 43.3182 84.5671 43.4541 84.2291 43.7259C83.891 43.9976 83.6408 44.3539 83.4784 44.7947C83.316 45.2356 83.2348 45.7112 83.2348 46.2216C83.2348 46.732 83.316 47.206 83.4784 47.6435C83.6408 48.081 83.891 48.4339 84.2291 48.7024C84.5671 48.9709 84.998 49.1051 85.5217 49.1051ZM91.1062 45.4062V50H89.9329V42.3636H91.0664V43.5568H91.1659C91.3449 43.169 91.6166 42.8575 91.9812 42.6222C92.3458 42.3835 92.8164 42.2642 93.3932 42.2642C93.9102 42.2642 94.3626 42.3703 94.7504 42.5824C95.1382 42.7912 95.4398 43.1094 95.6552 43.5369C95.8707 43.9612 95.9784 44.4981 95.9784 45.1477V50H94.8051V45.2273C94.8051 44.6274 94.6493 44.16 94.3378 43.8253C94.0262 43.4872 93.5986 43.3182 93.0551 43.3182C92.6806 43.3182 92.3458 43.3994 92.0508 43.5618C91.7592 43.7242 91.5288 43.9612 91.3598 44.2727C91.1907 44.5843 91.1062 44.9621 91.1062 45.4062ZM103.253 42.3636L100.429 50H99.2362L96.4124 42.3636H97.6851L99.793 48.4489H99.8726L101.981 42.3636H103.253ZM106.89 50.1591C106.154 50.1591 105.52 49.9967 104.986 49.6719C104.456 49.3438 104.046 48.8864 103.758 48.2997C103.473 47.7098 103.331 47.0237 103.331 46.2415C103.331 45.4593 103.473 44.7699 103.758 44.1733C104.046 43.5734 104.447 43.1061 104.961 42.7713C105.478 42.4332 106.081 42.2642 106.771 42.2642C107.169 42.2642 107.561 42.3305 107.949 42.4631C108.337 42.5956 108.69 42.8111 109.008 43.1094C109.326 43.4044 109.58 43.7955 109.769 44.2827C109.958 44.7699 110.052 45.3698 110.052 46.0824V46.5795H104.166V45.5653H108.859C108.859 45.1345 108.773 44.75 108.6 44.4119C108.431 44.0739 108.189 43.8071 107.875 43.6115C107.563 43.416 107.195 43.3182 106.771 43.3182C106.304 43.3182 105.899 43.4342 105.558 43.6662C105.22 43.8949 104.96 44.1932 104.777 44.5611C104.595 44.929 104.504 45.3234 104.504 45.7443V46.4205C104.504 46.9972 104.603 47.486 104.802 47.8871C105.004 48.2848 105.284 48.5881 105.642 48.7969C106 49.0024 106.416 49.1051 106.89 49.1051C107.198 49.1051 107.477 49.062 107.725 48.9759C107.977 48.8864 108.194 48.7538 108.377 48.5781C108.559 48.3991 108.7 48.1771 108.799 47.9119L109.933 48.2301C109.813 48.6146 109.613 48.9527 109.331 49.2443C109.05 49.5327 108.701 49.758 108.287 49.9205C107.873 50.0795 107.407 50.1591 106.89 50.1591ZM110.997 50V42.3636H112.13V43.517H112.21C112.349 43.1392 112.601 42.8326 112.966 42.5973C113.33 42.362 113.741 42.2443 114.199 42.2443C114.285 42.2443 114.393 42.246 114.522 42.2493C114.651 42.2526 114.749 42.2576 114.815 42.2642V43.4574C114.775 43.4474 114.684 43.4325 114.542 43.4126C114.402 43.3894 114.255 43.3778 114.099 43.3778C113.728 43.3778 113.397 43.4557 113.105 43.6115C112.817 43.764 112.588 43.9761 112.419 44.2479C112.253 44.5163 112.17 44.8229 112.17 45.1676V50H110.997ZM120.775 44.0739L119.721 44.3722C119.655 44.1965 119.557 44.0258 119.428 43.8601C119.302 43.6911 119.129 43.5518 118.911 43.4425C118.692 43.3331 118.412 43.2784 118.07 43.2784C117.603 43.2784 117.214 43.3861 116.902 43.6016C116.594 43.8137 116.44 44.0838 116.44 44.4119C116.44 44.7036 116.546 44.9339 116.758 45.103C116.97 45.272 117.302 45.4129 117.752 45.5256L118.886 45.804C119.569 45.9697 120.077 46.2232 120.412 46.5646C120.747 46.9027 120.914 47.3385 120.914 47.8722C120.914 48.3097 120.788 48.7008 120.536 49.0455C120.288 49.3902 119.94 49.6619 119.492 49.8608C119.045 50.0597 118.525 50.1591 117.931 50.1591C117.152 50.1591 116.508 49.9901 115.997 49.652C115.487 49.3139 115.164 48.8201 115.028 48.1705L116.141 47.892C116.248 48.303 116.448 48.6113 116.743 48.8168C117.041 49.0223 117.431 49.125 117.911 49.125C118.458 49.125 118.892 49.009 119.214 48.777C119.539 48.5417 119.701 48.2599 119.701 47.9318C119.701 47.6667 119.608 47.4446 119.423 47.2656C119.237 47.0833 118.952 46.9474 118.568 46.858L117.295 46.5597C116.596 46.3939 116.082 46.1371 115.754 45.7891C115.429 45.4377 115.266 44.9986 115.266 44.4716C115.266 44.0407 115.387 43.6596 115.629 43.3281C115.875 42.9967 116.208 42.7365 116.629 42.5476C117.053 42.3587 117.534 42.2642 118.07 42.2642C118.826 42.2642 119.419 42.4299 119.85 42.7614C120.284 43.0928 120.593 43.5303 120.775 44.0739ZM121.84 50V42.3636H123.014V50H121.84ZM122.437 41.0909C122.208 41.0909 122.011 41.013 121.845 40.8572C121.683 40.7015 121.602 40.5142 121.602 40.2955C121.602 40.0767 121.683 39.8894 121.845 39.7337C122.011 39.5779 122.208 39.5 122.437 39.5C122.666 39.5 122.861 39.5779 123.024 39.7337C123.189 39.8894 123.272 40.0767 123.272 40.2955C123.272 40.5142 123.189 40.7015 123.024 40.8572C122.861 41.013 122.666 41.0909 122.437 41.0909ZM127.425 50.1591C126.735 50.1591 126.131 49.995 125.61 49.6669C125.093 49.3388 124.689 48.8797 124.397 48.2898C124.109 47.6998 123.965 47.0104 123.965 46.2216C123.965 45.4261 124.109 44.7318 124.397 44.1385C124.689 43.5452 125.093 43.0845 125.61 42.7564C126.131 42.4283 126.735 42.2642 127.425 42.2642C128.114 42.2642 128.717 42.4283 129.235 42.7564C129.755 43.0845 130.159 43.5452 130.448 44.1385C130.739 44.7318 130.885 45.4261 130.885 46.2216C130.885 47.0104 130.739 47.6998 130.448 48.2898C130.159 48.8797 129.755 49.3388 129.235 49.6669C128.717 49.995 128.114 50.1591 127.425 50.1591ZM127.425 49.1051C127.949 49.1051 128.379 48.9709 128.717 48.7024C129.056 48.4339 129.306 48.081 129.468 47.6435C129.631 47.206 129.712 46.732 129.712 46.2216C129.712 45.7112 129.631 45.2356 129.468 44.7947C129.306 44.3539 129.056 43.9976 128.717 43.7259C128.379 43.4541 127.949 43.3182 127.425 43.3182C126.901 43.3182 126.47 43.4541 126.132 43.7259C125.794 43.9976 125.544 44.3539 125.382 44.7947C125.219 45.2356 125.138 45.7112 125.138 46.2216C125.138 46.732 125.219 47.206 125.382 47.6435C125.544 48.081 125.794 48.4339 126.132 48.7024C126.47 48.9709 126.901 49.1051 127.425 49.1051ZM133.009 45.4062V50H131.836V42.3636H132.97V43.5568H133.069C133.248 43.169 133.52 42.8575 133.884 42.6222C134.249 42.3835 134.72 42.2642 135.296 42.2642C135.813 42.2642 136.266 42.3703 136.654 42.5824C137.041 42.7912 137.343 43.1094 137.558 43.5369C137.774 43.9612 137.882 44.4981 137.882 45.1477V50H136.708V45.2273C136.708 44.6274 136.553 44.16 136.241 43.8253C135.929 43.4872 135.502 43.3182 134.958 43.3182C134.584 43.3182 134.249 43.3994 133.954 43.5618C133.662 43.7242 133.432 43.9612 133.263 44.2727C133.094 44.5843 133.009 44.9621 133.009 45.4062ZM142.283 50V42.3636H143.417V43.517H143.496C143.635 43.1392 143.887 42.8326 144.252 42.5973C144.616 42.362 145.027 42.2443 145.485 42.2443C145.571 42.2443 145.679 42.246 145.808 42.2493C145.937 42.2526 146.035 42.2576 146.101 42.2642V43.4574C146.061 43.4474 145.97 43.4325 145.828 43.4126C145.689 43.3894 145.541 43.3778 145.385 43.3778C145.014 43.3778 144.683 43.4557 144.391 43.6115C144.103 43.764 143.874 43.9761 143.705 44.2479C143.539 44.5163 143.456 44.8229 143.456 45.1676V50H142.283ZM148.899 50.179C148.415 50.179 147.976 50.0878 147.582 49.9055C147.187 49.7199 146.874 49.4531 146.642 49.1051C146.41 48.7538 146.294 48.3295 146.294 47.8324C146.294 47.3949 146.38 47.0402 146.553 46.7685C146.725 46.4934 146.955 46.2779 147.244 46.1222C147.532 45.9664 147.85 45.8504 148.198 45.7741C148.55 45.6946 148.903 45.6316 149.257 45.5852C149.721 45.5256 150.097 45.4808 150.386 45.451C150.677 45.4179 150.89 45.3632 151.022 45.2869C151.158 45.2107 151.226 45.0781 151.226 44.8892V44.8494C151.226 44.3589 151.092 43.9777 150.823 43.706C150.558 43.4342 150.155 43.2983 149.615 43.2983C149.055 43.2983 148.616 43.4209 148.298 43.6662C147.979 43.9115 147.756 44.1733 147.626 44.4517L146.513 44.054C146.712 43.59 146.977 43.2287 147.308 42.9702C147.643 42.7083 148.008 42.526 148.402 42.4233C148.8 42.3172 149.191 42.2642 149.575 42.2642C149.821 42.2642 150.102 42.294 150.421 42.3537C150.742 42.41 151.052 42.5277 151.35 42.7067C151.652 42.8857 151.902 43.1558 152.101 43.517C152.3 43.8783 152.399 44.3622 152.399 44.9688V50H151.226V48.9659H151.166C151.087 49.1316 150.954 49.3089 150.769 49.4979C150.583 49.6868 150.336 49.8475 150.028 49.9801C149.72 50.1127 149.343 50.179 148.899 50.179ZM149.078 49.125C149.542 49.125 149.933 49.0339 150.251 48.8516C150.573 48.6693 150.815 48.4339 150.977 48.1456C151.143 47.8572 151.226 47.554 151.226 47.2358V46.1619C151.176 46.2216 151.067 46.2763 150.898 46.326C150.732 46.3724 150.54 46.4138 150.321 46.4503C150.106 46.4834 149.895 46.5133 149.69 46.5398C149.488 46.563 149.323 46.5829 149.198 46.5994C148.893 46.6392 148.608 46.7038 148.342 46.7933C148.081 46.8795 147.868 47.0104 147.706 47.1861C147.547 47.3584 147.467 47.5937 147.467 47.892C147.467 48.2997 147.618 48.608 147.92 48.8168C148.225 49.0223 148.611 49.125 149.078 49.125ZM157.022 42.3636V43.358H153.064V42.3636H157.022ZM154.218 40.5341H155.391V47.8125C155.391 48.1439 155.439 48.3925 155.535 48.5582C155.635 48.7206 155.761 48.83 155.913 48.8864C156.069 48.9394 156.233 48.9659 156.405 48.9659C156.535 48.9659 156.641 48.9593 156.723 48.946C156.806 48.9295 156.873 48.9162 156.922 48.9062L157.161 49.9602C157.081 49.9901 156.97 50.0199 156.828 50.0497C156.685 50.0829 156.505 50.0994 156.286 50.0994C155.955 50.0994 155.63 50.0282 155.312 49.8857C154.997 49.7431 154.735 49.526 154.526 49.2344C154.321 48.9427 154.218 48.5748 154.218 48.1307V40.5341ZM161.066 50.1591C160.331 50.1591 159.696 49.9967 159.162 49.6719C158.632 49.3438 158.223 48.8864 157.934 48.2997C157.649 47.7098 157.507 47.0237 157.507 46.2415C157.507 45.4593 157.649 44.7699 157.934 44.1733C158.223 43.5734 158.624 43.1061 159.137 42.7713C159.654 42.4332 160.258 42.2642 160.947 42.2642C161.345 42.2642 161.738 42.3305 162.125 42.4631C162.513 42.5956 162.866 42.8111 163.184 43.1094C163.502 43.4044 163.756 43.7955 163.945 44.2827C164.134 44.7699 164.228 45.3698 164.228 46.0824V46.5795H158.342V45.5653H163.035C163.035 45.1345 162.949 44.75 162.777 44.4119C162.608 44.0739 162.366 43.8071 162.051 43.6115C161.739 43.416 161.371 43.3182 160.947 43.3182C160.48 43.3182 160.075 43.4342 159.734 43.6662C159.396 43.8949 159.136 44.1932 158.953 44.5611C158.771 44.929 158.68 45.3234 158.68 45.7443V46.4205C158.68 46.9972 158.779 47.486 158.978 47.8871C159.18 48.2848 159.461 48.5881 159.818 48.7969C160.176 49.0024 160.592 49.1051 161.066 49.1051C161.375 49.1051 161.653 49.062 161.902 48.9759C162.153 48.8864 162.371 48.7538 162.553 48.5781C162.735 48.3991 162.876 48.1771 162.975 47.9119L164.109 48.2301C163.99 48.6146 163.789 48.9527 163.507 49.2443C163.226 49.5327 162.878 49.758 162.463 49.9205C162.049 50.0795 161.583 50.1591 161.066 50.1591Z" fill="black"/>
    </svg>
    