<svg width="1175" height="382" viewBox="0 0 1175 382" fill="none" xmlns="http://www.w3.org/2000/svg">
<rect x="1" y="1" width="1174" height="381" fill="#F9F9F9"/>
<line x1="90.5" y1="2.18557e-08" x2="90.5" y2="382" stroke="#CCCCCC" stroke-opacity="0.5"/>
<line x1="181.5" y1="2.18557e-08" x2="181.5" y2="382" stroke="#CCCCCC" stroke-opacity="0.5"/>
<line x1="272.5" y1="2.18557e-08" x2="272.5" y2="382" stroke="#CCCCCC" stroke-opacity="0.5"/>
<line x1="363.5" y1="2.18557e-08" x2="363.5" y2="382" stroke="#CCCCCC" stroke-opacity="0.5"/>
<line x1="454.5" y1="2.18557e-08" x2="454.5" y2="382" stroke="#CCCCCC" stroke-opacity="0.5"/>
<line x1="545.5" y1="2.18557e-08" x2="545.5" y2="382" stroke="#CCCCCC" stroke-opacity="0.5"/>
<line x1="636.5" y1="2.18557e-08" x2="636.5" y2="382" stroke="#CCCCCC" stroke-opacity="0.5"/>
<line x1="727.5" y1="2.18557e-08" x2="727.5" y2="382" stroke="#CCCCCC" stroke-opacity="0.5"/>
<line x1="818.5" y1="2.18557e-08" x2="818.5" y2="382" stroke="#CCCCCC" stroke-opacity="0.5"/>
<line x1="909.5" y1="2.18557e-08" x2="909.5" y2="382" stroke="#CCCCCC" stroke-opacity="0.5"/>
<line x1="1000.5" y1="2.18557e-08" x2="1000.5" y2="382" stroke="#CCCCCC" stroke-opacity="0.5"/>
<line x1="1091.5" y1="2.18557e-08" x2="1091.5" y2="382" stroke="#CCCCCC" stroke-opacity="0.5"/>
<line y1="27.5" x2="1175" y2="27.5" stroke="#CCCCCC" stroke-opacity="0.5"/>
<line y1="119.5" x2="1175" y2="119.5" stroke="#CCCCCC" stroke-opacity="0.5"/>
<line y1="211.5" x2="1175" y2="211.5" stroke="#CCCCCC" stroke-opacity="0.5"/>
<line y1="303.5" x2="1175" y2="303.5" stroke="#CCCCCC" stroke-opacity="0.5"/>
</svg>
    